<?xml version="1.0" standalone="no"?>
<!DOCTYPE svg PUBLIC "-//W3C//DTD SVG 20010904//EN"
 "http://www.w3.org/TR/2001/REC-SVG-20010904/DTD/svg10.dtd">
<svg version="1.0" xmlns="http://www.w3.org/2000/svg"
 width="1042.000000pt" height="1280.000000pt" viewBox="0 0 1042.000000 1280.000000"
 preserveAspectRatio="xMidYMid meet">

<g transform="translate(0.000000,1280.000000) scale(0.100000,-0.100000)"
fill="#000000" stroke="none">
<path d="M4536 12418 c-31 -34 -83 -101 -116 -149 -69 -101 -293 -539 -346
-678 -63 -165 -163 -353 -207 -390 -9 -6 -60 -21 -114 -32 -55 -11 -164 -45
-248 -78 -166 -65 -232 -80 -241 -57 -13 34 78 382 121 466 18 36 46 173 37
182 -13 13 -52 -36 -168 -207 -100 -147 -142 -222 -274 -485 -55 -108 -117
-185 -171 -209 -20 -9 -49 -31 -63 -48 -21 -25 -36 -33 -69 -35 -40 -3 -42 -5
-39 -31 3 -23 -5 -36 -37 -66 -24 -22 -41 -47 -41 -60 0 -15 -9 -25 -30 -32
-16 -6 -35 -23 -42 -37 -8 -16 -26 -30 -45 -36 -18 -5 -47 -22 -65 -37 -17
-16 -37 -29 -44 -29 -7 0 -19 -8 -26 -19 -7 -10 -33 -28 -58 -41 -56 -28 -71
-40 -179 -139 -47 -43 -113 -101 -146 -127 -33 -27 -67 -58 -74 -69 -8 -11
-40 -47 -71 -80 -31 -33 -71 -81 -88 -107 -18 -25 -48 -56 -68 -69 -25 -15
-44 -39 -60 -75 -14 -31 -31 -55 -44 -59 -16 -5 -20 -15 -20 -55 0 -45 -2 -50
-37 -71 -21 -12 -59 -40 -85 -61 -26 -21 -64 -46 -84 -54 -34 -14 -35 -16 -18
-29 18 -13 18 -15 -10 -44 -16 -17 -38 -33 -48 -37 -12 -3 -20 -19 -24 -44 -4
-25 -19 -52 -44 -78 -21 -22 -48 -59 -60 -83 -13 -24 -41 -70 -64 -101 -22
-31 -60 -87 -84 -125 -24 -37 -84 -111 -133 -163 -86 -91 -109 -131 -109 -186
0 -12 -14 -40 -30 -63 -46 -63 -71 -136 -69 -197 2 -36 -3 -61 -15 -79 -15
-23 -16 -31 -6 -50 10 -19 8 -29 -15 -69 -15 -25 -38 -55 -51 -65 -19 -15 -23
-25 -18 -49 5 -26 2 -32 -25 -48 -33 -20 -35 -26 -22 -92 8 -40 6 -47 -19 -75
-38 -45 -65 -188 -56 -298 6 -68 4 -84 -14 -118 -11 -22 -24 -42 -28 -45 -5
-3 -4 -40 3 -83 13 -92 6 -138 -27 -167 -22 -20 -23 -28 -25 -156 -3 -218 -8
-265 -27 -264 -22 2 -20 -23 4 -74 25 -51 25 -95 0 -150 -44 -97 -34 -145 51
-247 54 -65 72 -108 98 -230 15 -72 21 -137 21 -230 0 -141 24 -267 59 -315
10 -14 20 -47 23 -73 6 -55 15 -67 48 -70 16 -1 28 -13 41 -43 10 -24 27 -45
38 -49 18 -5 21 -14 21 -63 0 -40 6 -67 21 -91 11 -19 23 -59 26 -88 4 -35 12
-58 23 -66 10 -7 20 -30 23 -52 8 -59 43 -160 85 -243 22 -44 39 -94 42 -125
5 -50 6 -52 43 -61 34 -9 37 -13 37 -43 0 -24 11 -48 35 -80 19 -25 48 -82 65
-126 17 -45 36 -95 42 -110 6 -16 29 -48 50 -70 21 -23 60 -76 86 -117 140
-223 314 -432 418 -502 72 -49 207 -188 258 -264 15 -24 34 -44 40 -44 19 0
73 -33 113 -70 21 -20 83 -69 138 -109 55 -41 134 -107 176 -146 41 -39 107
-92 145 -117 75 -48 132 -102 170 -158 26 -39 96 -208 154 -371 21 -58 47
-124 59 -146 11 -23 29 -73 40 -112 16 -56 30 -83 66 -123 50 -56 130 -180
194 -304 23 -45 52 -90 63 -100 21 -19 21 -19 14 18 -4 21 -22 75 -41 121 -18
46 -46 131 -60 188 -15 57 -47 172 -70 254 -40 140 -95 368 -95 394 0 30 100
-16 205 -94 84 -64 145 -90 274 -119 128 -29 198 -63 246 -119 41 -47 87 -140
115 -232 12 -38 40 -122 62 -185 22 -63 61 -182 87 -265 26 -82 61 -177 78
-210 69 -137 239 -445 280 -507 62 -95 113 -127 113 -72 0 26 -79 268 -127
392 -13 34 -37 122 -53 195 -15 72 -55 245 -89 382 -62 250 -85 405 -63 419 6
4 28 -1 49 -9 21 -9 73 -20 115 -26 42 -5 96 -16 119 -24 28 -10 82 -15 164
-15 l123 0 50 -45 50 -45 26 30 c14 17 29 38 34 46 8 14 21 14 107 4 158 -20
328 -1 483 55 61 22 78 24 110 16 54 -16 150 -13 234 5 47 10 96 13 138 10 76
-7 132 4 171 33 23 17 43 21 104 21 42 0 123 10 181 21 61 12 109 18 114 13
10 -10 -51 -300 -95 -454 -27 -92 -100 -293 -144 -394 -12 -27 -42 -106 -67
-175 -25 -69 -67 -173 -94 -231 -49 -105 -72 -190 -52 -190 18 0 69 70 87 119
23 62 47 81 101 81 40 0 46 3 68 39 35 55 98 177 124 239 13 28 40 89 62 135
122 257 228 505 272 631 17 50 43 118 58 151 15 33 35 85 43 115 29 98 44 113
191 205 14 9 14 14 -4 52 -10 24 -16 44 -12 47 13 8 66 -20 111 -58 l45 -38
38 42 c38 41 38 41 96 35 31 -3 67 -8 79 -11 24 -5 27 3 38 78 5 41 10 48 37
57 32 11 91 15 100 6 20 -20 -132 -532 -281 -945 -43 -120 -82 -252 -76 -258
8 -9 37 17 53 46 9 17 41 67 71 109 30 43 71 110 91 148 20 39 59 111 87 161
28 50 60 120 71 155 11 36 56 137 100 225 44 89 83 172 87 185 15 50 143 305
160 319 40 33 181 110 248 134 82 30 94 38 125 83 15 21 39 37 72 48 64 21 95
47 136 112 52 80 91 121 124 128 17 4 49 22 72 41 49 42 75 55 148 79 40 13
70 34 117 79 56 54 63 65 63 100 0 30 8 47 35 77 19 21 45 60 59 87 14 27 45
72 69 101 25 29 48 67 51 85 5 24 26 51 83 101 80 73 125 146 138 227 6 32 13
42 36 50 22 7 29 16 29 36 0 16 14 38 39 62 41 39 97 151 103 205 l3 30 20
-33 c18 -30 24 -33 54 -28 19 3 39 10 44 15 14 14 -10 41 -50 58 -27 11 -33
19 -33 43 0 38 16 45 63 25 20 -8 41 -15 47 -15 15 0 12 27 -6 66 -15 30 -15
42 -4 95 13 61 17 67 54 93 19 13 19 15 3 55 -20 48 -16 59 37 110 32 32 36
40 36 88 0 62 21 121 53 145 16 13 21 25 19 52 -3 31 0 37 25 47 67 25 76 56
42 135 -21 46 -21 53 -10 144 16 122 26 160 62 235 24 51 29 75 29 134 0 94
17 243 40 354 16 74 18 118 14 275 -3 103 -10 197 -16 209 -7 15 -8 34 -1 60
6 25 6 48 0 64 -13 32 -36 197 -47 339 -12 142 -45 394 -55 409 -3 7 -10 67
-15 135 -8 108 -14 137 -55 252 -26 71 -69 176 -96 234 -40 87 -50 120 -57
191 -7 67 -18 105 -53 182 -37 81 -48 97 -67 97 -19 0 -21 -4 -16 -25 7 -29
-1 -30 -58 -15 -43 12 -53 26 -63 88 -4 26 -19 57 -36 77 -16 18 -29 36 -29
39 0 4 14 25 31 46 31 38 32 42 26 106 -5 50 -13 75 -33 101 -15 19 -41 70
-59 113 -18 43 -51 100 -72 127 -22 26 -52 71 -67 98 -15 28 -50 75 -78 105
-28 30 -75 88 -105 128 -30 41 -105 127 -166 192 -267 282 -319 339 -333 359
-8 12 -47 47 -87 78 -39 32 -101 84 -137 117 -69 63 -262 195 -493 339 -78 49
-160 106 -182 127 -22 21 -54 41 -71 44 -17 4 -52 25 -78 46 -31 25 -58 40
-76 40 -21 0 -38 13 -75 57 -26 32 -58 79 -70 104 -13 25 -50 88 -82 140 -32
52 -73 122 -91 157 -37 71 -163 266 -194 299 -12 12 -24 20 -28 18 -10 -6 6
-88 23 -122 8 -16 17 -41 21 -58 4 -16 32 -97 63 -180 57 -154 87 -260 79
-274 -3 -4 -37 8 -75 27 -50 25 -90 37 -138 41 -49 5 -77 13 -99 30 -18 13
-54 27 -80 32 -49 9 -148 45 -171 62 -11 8 -58 92 -165 296 -48 90 -112 202
-191 336 -33 55 -78 132 -99 170 -53 93 -120 193 -192 288 -130 172 -117 79
70 -473 130 -387 148 -445 142 -462 -8 -21 -255 -4 -336 23 -55 18 -95 22
-285 26 -220 5 -237 3 -357 -31 -30 -9 -131 -21 -225 -26 -103 -7 -204 -19
-255 -31 -47 -11 -139 -24 -204 -30 -119 -9 -232 -31 -250 -49 -14 -14 -48
-12 -70 5 -19 15 -19 17 7 122 36 144 103 372 187 633 57 178 108 343 136 443
10 32 -14 17 -70 -45z m394 -1537 c80 -5 159 -14 175 -21 76 -29 133 -38 174
-28 30 8 58 7 98 -1 42 -8 73 -8 120 0 54 10 71 9 108 -5 31 -12 57 -15 92
-10 40 5 58 2 91 -15 37 -19 43 -20 76 -6 31 13 40 13 73 1 24 -9 113 -18 239
-24 222 -11 274 -25 306 -80 19 -32 94 -307 109 -397 9 -56 42 -183 124 -475
19 -69 60 -217 91 -329 30 -113 59 -212 63 -220 5 -9 12 -42 16 -74 3 -32 15
-84 26 -115 11 -31 20 -83 21 -115 1 -50 -2 -61 -24 -83 -23 -24 -24 -27 -12
-72 12 -45 11 -48 -12 -68 -23 -19 -25 -29 -29 -111 -4 -99 -15 -131 -69 -191
-18 -20 -54 -66 -81 -102 -27 -36 -85 -103 -130 -150 -45 -47 -130 -137 -191
-199 -60 -63 -131 -135 -159 -160 -27 -26 -78 -74 -112 -108 -60 -60 -158
-121 -171 -108 -4 4 -12 41 -18 83 -61 419 -89 520 -181 651 -129 183 -183
248 -223 266 -22 10 -43 16 -46 13 -3 -3 13 -62 36 -130 34 -99 44 -146 52
-241 22 -262 -43 -496 -154 -553 -34 -18 -150 -30 -200 -20 -46 8 -111 65
-137 119 -91 187 -95 426 -12 674 21 62 34 118 30 125 -5 8 -18 5 -47 -14 -47
-31 -101 -95 -209 -243 -119 -162 -150 -272 -160 -567 l-5 -138 -29 0 c-24 0
-49 18 -118 83 -48 45 -100 93 -115 107 -15 14 -77 77 -139 140 -62 64 -176
177 -254 253 -175 170 -234 237 -311 353 -33 50 -72 104 -86 119 -25 27 -26
33 -26 143 0 66 -5 130 -12 149 -11 29 -9 49 16 146 16 62 35 124 42 138 7 14
20 56 29 94 8 37 39 138 69 224 29 86 73 219 96 296 23 77 53 160 65 185 12
25 26 63 29 85 4 22 23 81 41 130 19 50 41 115 49 145 69 265 99 351 137 412
29 45 44 51 89 38 48 -14 237 -11 340 5 47 7 112 11 145 9 33 -3 125 -9 205
-13z m-1274 -232 c16 -13 2 -62 -73 -254 -30 -77 -77 -203 -104 -280 -28 -77
-74 -201 -104 -275 -30 -74 -72 -182 -94 -240 -50 -134 -129 -325 -191 -465
-69 -156 -138 -319 -166 -395 -14 -36 -35 -90 -49 -120 -13 -30 -29 -86 -35
-125 -7 -39 -25 -93 -40 -121 l-29 -52 40 -6 c73 -12 304 -141 331 -186 7 -12
34 -34 59 -49 l46 -29 7 -96 c3 -53 3 -108 0 -122 -6 -22 -10 -25 -33 -19 -25
6 -262 162 -351 231 -25 19 -60 46 -78 60 -58 45 -76 95 -74 203 1 79 -2 100
-18 126 -11 18 -20 45 -20 61 0 35 35 222 60 324 10 41 24 119 30 174 6 54 24
149 40 210 16 61 36 163 45 226 10 63 28 151 40 195 34 118 51 191 85 375 52
275 97 438 134 479 34 38 97 81 120 81 42 0 96 21 153 60 42 28 61 36 70 28 9
-7 17 -7 27 1 35 29 137 29 172 0z m3584 -83 c20 -18 70 -51 109 -71 61 -32
77 -46 101 -88 16 -28 38 -87 50 -131 12 -45 35 -128 51 -186 16 -58 35 -136
41 -175 6 -38 23 -115 39 -170 30 -110 84 -330 94 -385 3 -19 17 -82 30 -140
38 -171 62 -293 100 -510 20 -113 42 -227 48 -255 6 -27 11 -89 10 -137 l-2
-87 -43 -43 c-24 -24 -62 -70 -86 -103 -23 -33 -70 -89 -103 -125 -34 -36 -80
-85 -103 -109 -22 -24 -59 -52 -81 -61 -22 -10 -49 -27 -59 -39 -10 -11 -39
-33 -64 -48 -26 -14 -66 -42 -92 -61 -25 -19 -74 -49 -110 -67 -36 -17 -96
-53 -135 -79 -79 -53 -501 -266 -528 -266 -31 0 -8 26 208 240 251 249 215
216 305 277 131 90 588 554 638 648 22 42 19 112 -11 245 -15 63 -32 138 -38
165 -7 28 -43 122 -81 210 -38 88 -90 221 -115 295 -25 74 -56 155 -68 180
-13 25 -32 79 -44 120 -32 114 -41 140 -72 205 -16 33 -45 112 -65 175 -20 63
-42 129 -49 145 -7 17 -24 66 -38 110 -14 44 -39 118 -57 164 -20 56 -30 99
-28 125 3 40 4 41 53 53 28 6 74 12 104 12 47 1 58 -3 91 -33z m706 -336 c15
-6 65 -34 110 -63 70 -44 88 -61 118 -112 55 -95 140 -179 217 -214 73 -34
169 -116 224 -191 20 -28 56 -64 79 -80 31 -21 48 -42 61 -77 18 -50 59 -110
139 -203 26 -30 51 -72 57 -95 27 -107 40 -127 106 -174 18 -12 45 -43 60 -69
40 -70 43 -74 59 -61 15 12 17 7 14 -30 -1 -16 9 -33 34 -55 35 -31 112 -187
137 -280 6 -21 22 -57 36 -79 19 -30 29 -66 39 -145 8 -58 21 -140 30 -181 8
-42 18 -114 21 -161 3 -47 14 -107 24 -133 11 -27 19 -73 19 -107 0 -45 11
-93 46 -192 25 -73 54 -175 64 -226 11 -51 24 -101 30 -112 5 -10 10 -37 10
-59 0 -22 6 -64 14 -93 24 -94 18 -904 -7 -945 -4 -6 -23 -17 -42 -23 -19 -6
-35 -15 -35 -19 0 -4 16 -15 36 -24 l36 -18 -7 -52 c-8 -65 -27 -130 -54 -189
-11 -25 -25 -84 -30 -131 -7 -58 -20 -107 -41 -153 -17 -38 -35 -91 -40 -119
-6 -27 -27 -99 -49 -160 -76 -210 -93 -280 -82 -320 9 -35 9 -36 -27 -53 -44
-20 -50 -47 -32 -134 16 -74 9 -100 -39 -131 -30 -20 -38 -31 -34 -47 4 -13
-2 -26 -17 -38 -21 -17 -22 -22 -12 -51 11 -30 10 -32 -16 -42 -50 -20 -57
-26 -54 -47 2 -12 -6 -26 -19 -35 -16 -12 -20 -22 -15 -41 6 -23 3 -26 -19
-26 -22 0 -25 -4 -25 -39 0 -24 -13 -62 -35 -105 -19 -37 -35 -73 -35 -79 -2
-29 -147 -223 -187 -250 -28 -19 -49 -43 -63 -74 -13 -29 -59 -86 -124 -152
-135 -139 -240 -270 -282 -353 -32 -64 -38 -70 -107 -105 -39 -21 -76 -40 -81
-42 -14 -6 -1 95 22 174 11 39 32 122 47 185 15 63 44 169 65 235 21 66 57
199 80 295 23 96 50 200 61 230 10 30 35 127 54 215 46 204 120 515 140 580
14 49 35 175 56 330 5 44 17 112 25 150 9 39 20 108 25 155 6 47 18 146 27
220 9 74 15 146 14 160 -5 41 -79 127 -119 141 -20 6 -53 30 -73 51 -37 40
-37 40 -68 24 -40 -21 -39 -22 -46 19 -4 19 -8 35 -10 35 -1 0 -47 -7 -102
-15 -147 -22 -178 -20 -202 11 -19 26 -19 27 -71 13 -51 -13 -53 -13 -71 10
-9 13 -19 19 -21 13 -2 -7 -41 -14 -90 -18 -75 -6 -96 -3 -177 21 -86 25 -101
26 -210 20 -106 -6 -134 -4 -287 25 -93 17 -215 42 -270 55 -55 13 -136 26
-180 30 -113 9 -125 13 -125 42 0 29 1 30 110 114 104 80 296 196 370 224 30
11 87 41 125 66 39 25 93 58 120 74 28 15 77 45 110 65 33 20 85 50 115 65 30
15 92 54 137 86 45 32 84 59 87 59 2 0 22 10 43 22 50 30 220 88 259 88 21 0
39 10 60 31 16 17 54 44 85 59 31 16 63 40 72 54 10 14 52 49 95 78 42 28 98
72 125 96 56 54 57 62 26 257 -41 259 -73 392 -172 716 -30 96 -60 207 -67
245 -7 38 -25 107 -40 154 -15 47 -33 110 -40 140 -7 30 -28 90 -46 133 -19
43 -52 138 -73 210 -22 73 -51 164 -65 202 -15 39 -35 104 -46 147 -10 42 -36
111 -58 155 -34 67 -53 119 -87 231 -7 25 7 29 51 12z m-5312 -26 c11 -43 -37
-210 -163 -564 -22 -63 -41 -126 -41 -139 0 -14 -24 -97 -54 -185 -64 -189
-124 -402 -141 -501 -7 -38 -19 -87 -28 -107 -13 -30 -21 -37 -49 -40 -32 -3
-33 -4 -30 -45 4 -53 -6 -72 -57 -107 -31 -22 -49 -27 -83 -25 -54 4 -60 -13
-22 -76 l26 -46 -37 -167 c-20 -92 -39 -173 -41 -180 -3 -10 -16 -11 -50 -6
-45 6 -45 6 -33 -14 8 -12 26 -27 41 -33 39 -16 47 -35 35 -81 -8 -32 -7 -42
8 -58 14 -16 15 -24 6 -51 -10 -29 -7 -38 39 -113 55 -91 146 -179 156 -152 3
9 13 16 20 16 27 0 91 -39 137 -82 43 -42 45 -46 57 -132 8 -54 10 -125 6
-185 -8 -115 3 -147 48 -144 16 1 30 4 33 6 2 3 8 45 13 93 32 317 33 324 72
324 37 0 465 -212 597 -296 170 -107 314 -195 431 -261 217 -123 460 -313 460
-358 0 -7 -10 -15 -22 -18 -13 -2 -90 -19 -173 -36 -82 -17 -170 -38 -195 -46
-25 -7 -115 -28 -200 -44 -85 -17 -188 -42 -228 -56 -41 -14 -93 -25 -115 -25
-65 -1 -170 -17 -312 -49 -71 -16 -213 -44 -315 -61 -101 -18 -230 -45 -285
-60 -55 -15 -122 -30 -150 -33 -48 -5 -199 -50 -220 -65 -6 -4 -26 -27 -45
-52 -19 -25 -38 -46 -42 -48 -5 -2 -8 -58 -8 -125 0 -105 -4 -132 -26 -198
-29 -86 -25 -126 14 -144 12 -5 24 -21 27 -35 10 -46 43 -85 70 -85 23 0 30
-9 55 -69 16 -38 39 -79 51 -92 17 -18 22 -39 26 -106 5 -79 7 -85 33 -100 28
-16 32 -27 45 -114 5 -30 18 -53 51 -87 41 -43 44 -50 44 -100 0 -43 9 -72 43
-143 65 -135 84 -188 111 -319 14 -66 30 -136 36 -155 5 -19 24 -102 41 -185
16 -82 41 -193 54 -245 13 -52 31 -135 40 -185 9 -49 26 -121 37 -160 36 -125
81 -352 72 -367 -8 -13 -44 -9 -72 8 -36 22 -165 172 -259 301 -80 109 -175
228 -236 297 -34 38 -80 93 -102 121 -22 29 -66 83 -98 121 -33 38 -86 109
-119 158 -34 50 -78 108 -98 130 -87 96 -257 382 -293 494 -15 45 -47 128 -71
185 -56 128 -146 371 -146 395 -1 9 -7 28 -15 42 -8 14 -14 52 -15 88 0 35 -5
72 -10 83 -10 17 -23 107 -34 229 -2 19 -9 62 -15 95 -6 33 -16 143 -21 245
-15 264 -19 290 -43 337 -20 40 -21 44 -5 70 14 25 15 52 7 248 -5 121 -14
250 -20 286 -6 36 -9 83 -6 105 19 122 28 274 24 384 -5 97 -3 131 8 150 8 14
15 52 15 85 0 80 18 139 78 265 27 58 58 136 68 174 11 43 29 82 46 102 21 23
28 42 28 72 0 57 15 92 40 92 18 0 20 6 19 48 -1 31 5 59 19 82 11 19 28 59
37 89 12 36 35 72 69 110 79 86 96 114 96 158 0 28 9 51 31 82 18 23 42 68 55
99 15 38 32 62 51 73 22 12 33 32 56 107 15 51 32 92 37 92 5 0 16 13 24 28 8
15 29 36 48 46 21 11 47 41 70 81 60 100 264 368 298 390 17 11 61 55 97 98
39 47 79 85 99 93 27 11 34 20 34 42 0 40 19 60 65 70 35 7 42 13 57 52 9 26
22 44 29 42 69 -17 69 -17 69 26 0 50 26 72 86 72 37 0 43 -3 48 -26z m862
-2356 c49 -46 136 -128 194 -183 58 -55 119 -112 135 -125 17 -14 41 -40 54
-58 18 -27 21 -35 11 -48 -14 -16 -29 -9 -254 124 -197 118 -268 192 -282 295
-15 106 24 105 142 -5z m624 -1931 c0 -16 -9 -28 -27 -36 -16 -7 -86 -50 -158
-96 -71 -45 -191 -115 -265 -155 -74 -40 -164 -89 -200 -110 -36 -20 -81 -45
-100 -54 -19 -9 -64 -41 -100 -72 -36 -31 -96 -71 -135 -89 -38 -18 -81 -42
-95 -54 -13 -12 -39 -31 -57 -42 -18 -11 -33 -26 -34 -32 -6 -77 -5 -211 2
-247 33 -173 62 -285 89 -350 41 -98 56 -146 64 -195 4 -22 23 -98 43 -170 20
-71 42 -157 49 -190 7 -33 31 -121 54 -195 22 -74 47 -162 54 -195 8 -33 57
-231 109 -440 52 -209 114 -459 137 -555 23 -96 57 -229 76 -294 19 -66 32
-126 30 -133 -15 -37 -156 -2 -286 71 -174 98 -225 120 -285 126 -57 5 -60 6
-66 37 -3 17 -27 55 -53 85 -25 29 -56 73 -67 98 -25 52 -152 686 -194 965
-15 99 -38 223 -50 275 -28 111 -60 287 -75 404 -6 46 -19 116 -30 157 -14 50
-24 132 -31 254 -5 99 -16 227 -25 285 -41 282 -58 530 -39 549 6 6 44 24 85
41 278 117 925 285 1271 330 90 12 191 27 224 35 83 18 85 18 85 -8z m2435
-97 c33 -5 121 -24 195 -40 125 -29 203 -51 495 -144 61 -19 128 -39 150 -45
22 -6 96 -29 164 -51 68 -22 131 -40 140 -40 9 0 34 -10 56 -22 27 -14 68 -24
130 -29 85 -7 92 -9 116 -39 26 -31 56 -101 78 -185 15 -55 14 -155 -4 -320
-8 -77 -15 -187 -15 -244 0 -57 -6 -128 -14 -160 -8 -31 -22 -105 -31 -165 -9
-60 -24 -150 -34 -200 -11 -50 -24 -135 -30 -189 -11 -96 -145 -775 -200
-1015 -21 -92 -34 -127 -49 -138 -12 -8 -22 -28 -24 -46 -2 -27 -9 -34 -36
-42 -27 -7 -31 -12 -25 -30 17 -52 -10 -85 -119 -148 -32 -18 -58 -38 -58 -43
0 -6 -14 -25 -30 -44 -22 -24 -35 -31 -48 -25 -32 14 -102 16 -118 3 -8 -6
-37 -22 -64 -35 -28 -13 -50 -28 -50 -33 0 -17 -61 -81 -77 -81 -13 0 -15 11
-9 73 8 78 33 202 47 228 4 9 16 52 25 95 8 44 34 147 56 229 73 269 79 288
123 460 97 380 118 456 160 595 23 80 51 190 60 245 9 55 24 118 32 140 8 22
22 57 29 78 8 22 23 89 33 150 18 104 42 186 63 214 6 7 5 19 -1 30 -6 10 -14
41 -19 68 -7 45 -11 52 -45 68 -32 15 -39 24 -53 75 -14 50 -21 61 -57 81 -23
13 -69 45 -102 71 -63 49 -242 164 -610 395 -316 198 -345 219 -345 255 0 16
5 19 28 15 15 -3 54 -9 87 -15z m-1984 -421 c42 -30 66 -83 88 -201 63 -332
61 -308 67 -653 8 -398 13 -428 80 -433 l42 -3 7 183 c18 487 17 486 54 572
33 79 61 213 61 294 0 41 1 42 33 41 29 0 38 -8 90 -83 31 -45 81 -109 111
-141 54 -57 55 -58 103 -53 72 7 118 34 174 102 58 69 134 127 155 119 17 -6
34 -65 34 -118 0 -50 35 -234 51 -269 14 -31 48 -35 71 -8 9 9 36 53 61 97 57
100 127 363 127 474 0 39 3 72 8 74 13 9 183 -103 336 -221 229 -177 250 -194
370 -315 61 -62 146 -138 188 -169 l76 -57 12 -98 c7 -54 10 -127 6 -163 -7
-79 -13 -169 -26 -450 -6 -118 -17 -255 -25 -305 -8 -49 -17 -110 -20 -135 -4
-25 -13 -68 -21 -95 -8 -28 -21 -102 -28 -165 -16 -125 -37 -242 -66 -360 -10
-41 -24 -111 -30 -155 -7 -44 -19 -99 -26 -123 -8 -23 -14 -72 -14 -108 0 -46
-7 -81 -24 -122 -13 -31 -32 -84 -41 -117 -10 -33 -21 -64 -26 -69 -4 -5 -38
-12 -76 -16 -115 -13 -216 -36 -287 -64 -38 -15 -105 -34 -150 -41 -131 -22
-286 -44 -361 -50 -38 -4 -110 -13 -160 -22 -64 -10 -167 -15 -355 -15 -200 0
-279 -3 -320 -14 -64 -17 -247 -12 -370 11 -41 8 -102 17 -135 20 -178 18
-300 43 -341 70 -20 13 -64 107 -64 137 0 10 -7 40 -70 305 -16 67 -38 186
-49 265 -11 79 -36 215 -55 303 -19 88 -38 196 -41 240 -4 44 -17 154 -30 245
-13 91 -28 242 -34 335 -7 94 -17 202 -23 240 -6 39 -14 153 -19 255 -4 102
-10 218 -14 258 -7 65 -6 75 13 95 11 12 31 45 45 72 29 58 99 131 187 195 33
25 94 73 133 108 40 34 103 84 142 110 38 25 83 58 100 73 16 15 66 52 110 82
89 62 120 69 166 36z"/>
<path d="M9330 6180 c0 -23 4 -30 20 -30 24 0 70 20 70 31 0 13 -36 29 -64 29
-22 0 -26 -4 -26 -30z"/>
<path d="M1630 9129 c0 -11 5 -17 10 -14 6 3 10 13 10 21 0 8 -4 14 -10 14 -5
0 -10 -9 -10 -21z"/>
<path d="M2127 8764 c-4 -4 -7 -16 -7 -26 0 -13 7 -18 26 -18 21 0 25 4 22 22
-3 23 -27 35 -41 22z"/>
<path d="M1997 8713 c-15 -15 -7 -43 13 -43 15 0 20 7 20 25 0 24 -18 34 -33
18z"/>
<path d="M1824 8329 c-8 -14 18 -31 30 -19 9 9 0 30 -14 30 -5 0 -12 -5 -16
-11z"/>
<path d="M1560 8090 c0 -5 5 -10 11 -10 5 0 7 5 4 10 -3 6 -8 10 -11 10 -2 0
-4 -4 -4 -10z"/>
<path d="M1597 7766 c-24 -18 -21 -26 8 -26 15 0 25 6 25 14 0 22 -13 26 -33
12z"/>
<path d="M1735 7660 c-4 -6 -3 -16 3 -22 6 -6 12 -6 17 2 4 6 3 16 -3 22 -6 6
-12 6 -17 -2z"/>
<path d="M1890 7637 c0 -28 34 -76 46 -65 9 10 -18 80 -34 86 -7 2 -12 -6 -12
-21z"/>
<path d="M1601 5871 c-19 -12 -6 -43 16 -39 21 4 31 48 11 48 -7 0 -19 -4 -27
-9z"/>
<path d="M1660 5320 c0 -13 7 -20 20 -20 11 0 20 4 20 10 0 5 -9 14 -20 20
-17 9 -20 8 -20 -10z"/>
<path d="M1550 5255 c0 -8 5 -15 10 -15 6 0 10 7 10 15 0 8 -4 15 -10 15 -5 0
-10 -7 -10 -15z"/>
<path d="M1762 5193 c2 -10 14 -19 26 -21 19 -3 23 1 20 15 -2 10 -14 19 -26
21 -19 3 -23 -1 -20 -15z"/>
<path d="M7825 5391 c-7 -12 12 -24 25 -16 11 7 4 25 -10 25 -5 0 -11 -4 -15
-9z"/>
<path d="M7266 2661 c-8 -13 4 -42 15 -35 12 7 12 44 0 44 -6 0 -12 -4 -15 -9z"/>
<path d="M10250 4295 c0 -31 46 -121 73 -144 13 -10 16 -9 22 9 7 22 -22 78
-70 135 l-25 30 0 -30z"/>
<path d="M9592 3539 l3 -44 40 0 c38 0 40 1 38 29 -3 36 -10 44 -51 52 l-33 7
3 -44z"/>
<path d="M9471 3453 c73 -122 101 -146 107 -92 2 21 -8 37 -53 78 -67 60 -85
65 -54 14z"/>
<path d="M1752 3008 c6 -18 28 -21 28 -4 0 9 -7 16 -16 16 -9 0 -14 -5 -12
-12z"/>
<path d="M7422 2029 c-16 -25 -15 -29 8 -29 13 0 20 7 20 19 0 28 -14 33 -28
10z"/>
</g>
</svg>
